# xmcd
#
# Track frame offsets: 
#        150
#        18232
#        40759
#        55398
#        69641
#        88851
#        114009
#        130299
#        148710
#        164065
#        180951
#        193127
#        208607
#        226958
#        249010
#        264962
#        272092
#
# Disc length: 3796 seconds
#
# Revision: 0
# Processed by: cddbd v1.5.1PL0 Copyright (c) Steve Scherf et al.
# Submitted via: ExactAudioCopy v0.95a4
#
DISCID=ea0ed211
DTITLE=Various Artist - Absolute Relaxed Vol. 2 Disc2
DYEAR=1900
DGENRE=Ambient
TTITLE0=Cane - Chariots Of Fire
TTITLE1=Kenny G - Songbird
TTITLE2=Louis Clark - Pachelbel's Canon
TTITLE3=Lasse Wellander - Anthem (Från Chess)
TTITLE4=Ennio Morricone - Cockey's Sång
TTITLE5=Yanni - To The One Who Knows
TTITLE6=City Of Prague Philharmonic - Unchained Melody
TTITLE7=Dana Dragomir - Mio Min Mio
TTITLE8=High - Albatross
TTITLE9=Charlotte Kinder - Heart Of A Volunteer (Från Pea
TTITLE10=City Of Prague Philharmonic - Love Theme (Från Gudfadern)
TTITLE11=Björn J-Son Lindh and Steffan Sc - Lake District
TTITLE12=Nikolaj Block-Sally Herbert - Any Other Theme (Från American
TTITLE13=Dame Moura Lympany - Clair De Lune (Från Oceans Ele
TTITLE14=City Of Prague Philharmonic - The Fellowship (Från Sagan Om)
TTITLE15=City Of Prague Philharmonic - You Only Live Twice
TTITLE16=City Of Prague Philharmonic - Moon River
EXTD=
EXTT0=
EXTT1=
EXTT2=
EXTT3=
EXTT4=
EXTT5=
EXTT6=
EXTT7=
EXTT8=
EXTT9=
EXTT10=
EXTT11=
EXTT12=
EXTT13=
EXTT14=
EXTT15=
EXTT16=
PLAYORDER=
